<svg width="66" height="42" viewBox="0 0 66 42" fill="none" xmlns="http://www.w3.org/2000/svg">
<circle cx="33.3717" cy="20.8717" r="16.2639" stroke="white" stroke-width="3.72727"/>
<mask id="path-2-inside-1_2758_2534" fill="white">
<path d="M33.3717 2.74679C35.7523 2.74679 38.1095 3.21568 40.3088 4.12667C42.5082 5.03767 44.5066 6.37294 46.1899 8.05624C47.8732 9.73954 49.2084 11.7379 50.1194 13.9372C51.0304 16.1366 51.4993 18.4938 51.4993 20.8744C51.4993 23.2549 51.0304 25.6122 50.1194 27.8115C49.2084 30.0108 47.8732 32.0092 46.1899 33.6925C44.5066 35.3758 42.5082 36.7111 40.3088 37.6221C38.1095 38.5331 35.7523 39.002 33.3717 39.002L33.3717 26.2629C34.0794 26.2629 34.7801 26.1235 35.4338 25.8527C36.0876 25.5819 36.6816 25.185 37.182 24.6846C37.6824 24.1843 38.0793 23.5902 38.3501 22.9365C38.6209 22.2827 38.7603 21.582 38.7603 20.8744C38.7603 20.1667 38.6209 19.466 38.3501 18.8123C38.0793 18.1585 37.6824 17.5645 37.182 17.0641C36.6816 16.5637 36.0876 16.1668 35.4338 15.896C34.7801 15.6252 34.0794 15.4858 33.3717 15.4858L33.3717 2.74679Z"/>
</mask>
<path d="M33.3717 2.74679C35.7523 2.74679 38.1095 3.21568 40.3088 4.12667C42.5082 5.03767 44.5066 6.37294 46.1899 8.05624C47.8732 9.73954 49.2084 11.7379 50.1194 13.9372C51.0304 16.1366 51.4993 18.4938 51.4993 20.8744C51.4993 23.2549 51.0304 25.6122 50.1194 27.8115C49.2084 30.0108 47.8732 32.0092 46.1899 33.6925C44.5066 35.3758 42.5082 36.7111 40.3088 37.6221C38.1095 38.5331 35.7523 39.002 33.3717 39.002L33.3717 26.2629C34.0794 26.2629 34.7801 26.1235 35.4338 25.8527C36.0876 25.5819 36.6816 25.185 37.182 24.6846C37.6824 24.1843 38.0793 23.5902 38.3501 22.9365C38.6209 22.2827 38.7603 21.582 38.7603 20.8744C38.7603 20.1667 38.6209 19.466 38.3501 18.8123C38.0793 18.1585 37.6824 17.5645 37.182 17.0641C36.6816 16.5637 36.0876 16.1668 35.4338 15.896C34.7801 15.6252 34.0794 15.4858 33.3717 15.4858L33.3717 2.74679Z" fill="white" stroke="white" stroke-width="1.49091" mask="url(#path-2-inside-1_2758_2534)"/>
<mask id="path-3-inside-2_2758_2534" fill="white">
<path d="M33.373 26.6739C32.6112 26.6739 31.8569 26.5239 31.1531 26.2324C30.4493 25.9408 29.8099 25.5135 29.2712 24.9749C28.7325 24.4362 28.3053 23.7968 28.0137 23.093C27.7222 22.3892 27.5722 21.6349 27.5722 20.8731C27.5722 20.1113 27.7222 19.357 28.0137 18.6532C28.3053 17.9494 28.7325 17.3099 29.2712 16.7713C29.8099 16.2326 30.4493 15.8053 31.1531 15.5138C31.8569 15.2223 32.6112 15.0723 33.373 15.0723L33.373 20.8731L33.373 26.6739Z"/>
</mask>
<path d="M33.373 26.6739C32.6112 26.6739 31.8569 26.5239 31.1531 26.2324C30.4493 25.9408 29.8099 25.5135 29.2712 24.9749C28.7325 24.4362 28.3053 23.7968 28.0137 23.093C27.7222 22.3892 27.5722 21.6349 27.5722 20.8731C27.5722 20.1113 27.7222 19.357 28.0137 18.6532C28.3053 17.9494 28.7325 17.3099 29.2712 16.7713C29.8099 16.2326 30.4493 15.8053 31.1531 15.5138C31.8569 15.2223 32.6112 15.0723 33.373 15.0723L33.373 20.8731L33.373 26.6739Z" fill="#FFE30F" stroke="white" stroke-width="1.49091" mask="url(#path-3-inside-2_2758_2534)"/>
</svg>
