<svg width="66" height="42" viewBox="0 0 66 42" fill="none" xmlns="http://www.w3.org/2000/svg">
<g clip-path="url(#clip0_2758_2484)">
<path d="M41.25 33.0488H24.75C24.203 33.0488 23.6784 33.1871 23.2916 33.4332C22.9048 33.6794 22.6875 34.0132 22.6875 34.3613C22.6875 34.7094 22.9048 35.0433 23.2916 35.2894C23.6784 35.5355 24.203 35.6738 24.75 35.6738H41.25C41.797 35.6738 42.3216 35.5355 42.7084 35.2894C43.0952 35.0433 43.3125 34.7094 43.3125 34.3613C43.3125 34.0132 43.0952 33.6794 42.7084 33.4332C42.3216 33.1871 41.797 33.0488 41.25 33.0488Z" fill="#FFE30F"/>
<path d="M4.21206 6.46969C4.73656 5.58061 5.70454 5.04883 6.7368 5.04883H58.8649C59.9444 5.04883 60.9493 5.62902 61.4528 6.58393C65.9955 15.1993 65.6842 20.6915 61.4332 29.4148C60.9419 30.423 59.9071 31.0488 58.7856 31.0488H6.75756C5.71402 31.0488 4.73783 30.5056 4.21506 29.6024C-0.843797 20.8626 -1.0269 15.3503 4.21206 6.46969Z" fill="white"/>
<rect x="11.2676" y="8.19531" width="43.4634" height="1.02439" fill="#272623" fill-opacity="0.2"/>
<rect x="8.04883" y="11.2676" width="49.9024" height="1.02439" fill="#272623" fill-opacity="0.2"/>
<rect x="4.83008" y="14.3418" width="56.3415" height="1.02439" fill="#272623" fill-opacity="0.2"/>
<rect x="4.83008" y="17.4141" width="56.3415" height="1.02439" fill="#272623" fill-opacity="0.2"/>
<rect x="4.83008" y="20.4883" width="56.3415" height="1.02439" fill="#272623" fill-opacity="0.2"/>
<rect x="8.04883" y="23.5605" width="49.9024" height="1.02439" fill="#272623" fill-opacity="0.2"/>
<rect x="11.2676" y="26.6348" width="43.4634" height="1.02439" fill="#272623" fill-opacity="0.2"/>
</g>
<defs>
<clipPath id="clip0_2758_2484">
<rect width="66" height="42" fill="white"/>
</clipPath>
</defs>
</svg>
