<svg width="66" height="42" viewBox="0 0 66 42" fill="none" xmlns="http://www.w3.org/2000/svg">
<path d="M54.0756 6.21664L48.2834 0.424365C48.0116 0.152649 47.6431 -8.09778e-09 47.2589 0C46.8746 8.09778e-09 46.5061 0.152649 46.2343 0.424365C45.9626 0.696082 45.81 1.06461 45.81 1.44887C45.81 1.83314 45.9626 2.20166 46.2343 2.47338L46.5022 2.73946L36.516 10.2296L29.5979 11.6143C29.3177 11.6704 29.0603 11.8076 28.8575 12.0089L13.7723 27.0905C12.9577 27.9052 12.5 29.0101 12.5 30.1623C12.5 31.3144 12.9577 32.4193 13.7723 33.234L21.266 40.7277C22.0807 41.5424 23.1856 42 24.3378 42C25.4899 42 26.5948 41.5424 27.4095 40.7277L42.4911 25.6479C42.6928 25.4455 42.8301 25.1879 42.8857 24.9076L44.2704 17.9894L51.7605 8.00319L52.0266 8.27108C52.1612 8.40562 52.3209 8.51235 52.4967 8.58516C52.6725 8.65797 52.8609 8.69545 53.0511 8.69545C53.2414 8.69545 53.4298 8.65797 53.6056 8.58516C53.7814 8.51235 53.9411 8.40562 54.0756 8.27108C54.2102 8.13654 54.3169 7.97682 54.3897 7.80103C54.4625 7.62525 54.5 7.43684 54.5 7.24657C54.5 7.05631 54.4625 6.8679 54.3897 6.69212C54.3169 6.51633 54.2102 6.35661 54.0756 6.22207V6.21664ZM24.3378 39.0986C24.1477 39.0991 23.9595 39.062 23.784 38.9893C23.6084 38.9166 23.4491 38.8098 23.3151 38.6751L15.8249 31.1849C15.5536 30.9134 15.4011 30.5452 15.4011 30.1613C15.4011 29.7775 15.5536 29.4093 15.8249 29.1377L16.8494 28.1132L26.3868 37.6506L25.3568 38.6751C25.0864 38.9452 24.72 39.0975 24.3378 39.0986ZM41.7562 16.5088C41.6264 16.6815 41.5373 16.8814 41.4955 17.0934L40.1326 23.9048L38.5704 25.4669L29.0331 15.9296L30.5952 14.3674L37.4066 13.0045C37.6186 12.9627 37.8185 12.8736 37.9912 12.7438L48.5712 4.80839L49.6916 5.92883L41.7562 16.5088Z" fill="white"/>
</svg>
