<svg width="66" height="42" viewBox="0 0 66 42" fill="none" xmlns="http://www.w3.org/2000/svg">
<path d="M7.64032 30.3875L3.86564 29.9776L12.8585 11.2024L17.2241 11.6766L21.986 31.9456L18.2113 31.5357L14.6828 15.4512L14.5302 15.4347L7.64032 30.3875ZM8.59557 22.7468L18.8901 23.8649L18.5816 26.7054L8.28706 25.5873L8.59557 22.7468Z" fill="white"/>
<path d="M28.9505 32.0681L25.531 12.7317L37.9656 10.5328L38.4849 13.4692L29.5531 15.0486L30.3545 19.5806L34.084 18.9211C35.5632 18.6595 36.8743 18.6776 38.0175 18.9752C39.1658 19.2655 40.1006 19.798 40.8218 20.5727C41.543 21.3475 42.0083 22.3265 42.2175 23.5099C42.4279 24.6995 42.33 25.7976 41.9238 26.8042C41.5165 27.8044 40.826 28.6536 39.8524 29.3515C38.8851 30.0484 37.6619 30.5276 36.1827 30.7891L28.9505 32.0681ZM31.9457 28.5784L35.6751 27.9189C36.4556 27.7809 37.0904 27.5161 37.5794 27.1245C38.0684 26.733 38.4085 26.2704 38.5998 25.7367C38.7973 25.202 38.846 24.6513 38.7458 24.0848C38.6011 23.2666 38.1634 22.6267 37.4327 22.1652C36.7071 21.6963 35.759 21.5654 34.5882 21.7724L30.8588 22.432L31.9457 28.5784Z" fill="#FFE30F"/>
<path d="M44.8525 30.0601L47.3406 10.582L54.7971 11.5345C56.2047 11.7143 57.3461 12.0856 58.2215 12.6485C59.104 13.2059 59.7281 13.8946 60.0938 14.7146C60.4658 15.5354 60.5902 16.4276 60.4671 17.3914C60.3659 18.184 60.127 18.843 59.7506 19.3684C59.375 19.8875 58.9081 20.2886 58.35 20.5717C57.7918 20.8548 57.186 21.032 56.5325 21.1032L56.5082 21.2934C57.1945 21.4197 57.83 21.7167 58.4146 22.1845C59.0064 22.6467 59.4606 23.2525 59.7773 24.0018C60.094 24.7511 60.1892 25.6203 60.0629 26.6094C59.9341 27.6176 59.5741 28.4931 58.9831 29.236C58.3928 29.9725 57.5767 30.5094 56.5348 30.8468C55.4929 31.1841 54.2269 31.2576 52.7369 31.0672L44.8525 30.0601ZM48.7576 27.5624L52.5524 28.0472C53.8332 28.2108 54.7869 28.0845 55.4136 27.6684C56.0474 27.2467 56.4137 26.6491 56.5125 25.8756C56.5862 25.2986 56.51 24.7605 56.2838 24.2612C56.0584 23.7555 55.6996 23.3359 55.2073 23.0024C54.7159 22.6625 54.1056 22.446 53.3764 22.3529L49.4865 21.856L48.7576 27.5624ZM49.8109 19.3166L53.3014 19.7625C53.9101 19.8402 54.4727 19.7993 54.9893 19.6398C55.5066 19.4739 55.9311 19.2027 56.2628 18.8262C56.6016 18.4442 56.8074 17.9678 56.8803 17.3972C56.9767 16.6427 56.7897 15.9873 56.3195 15.431C55.8556 14.8756 55.1037 14.5314 54.0639 14.3986L50.4973 13.943L49.8109 19.3166Z" fill="white"/>
</svg>
