<svg width="66" height="42" viewBox="0 0 66 42" fill="none" xmlns="http://www.w3.org/2000/svg">
<path d="M53.3821 20.3298C53.3223 20.1973 51.8754 17.0457 48.6586 13.8874C44.3724 9.67914 38.9587 7.45508 33 7.45508C27.0413 7.45508 21.6276 9.67914 17.3414 13.8874C14.1246 17.0457 12.6708 20.2024 12.6179 20.3298C12.5402 20.5014 12.5 20.6871 12.5 20.8749C12.5 21.0627 12.5402 21.2484 12.6179 21.42C12.6777 21.5526 14.1246 24.7025 17.3414 27.8608C21.6276 32.0674 27.0413 34.2914 33 34.2914C38.9587 34.2914 44.3724 32.0674 48.6586 27.8608C51.8754 24.7025 53.3223 21.5526 53.3821 21.42C53.4598 21.2484 53.5 21.0627 53.5 20.8749C53.5 20.6871 53.4598 20.5014 53.3821 20.3298ZM33 27.5823C31.6485 27.5823 30.3273 27.1889 29.2036 26.4517C28.0799 25.7145 27.204 24.6666 26.6868 23.4407C26.1696 22.2148 26.0343 20.8658 26.298 19.5644C26.5616 18.2629 27.2124 17.0675 28.1681 16.1292C29.1238 15.1909 30.3413 14.552 31.6669 14.2931C32.9924 14.0342 34.3664 14.1671 35.615 14.6749C36.8636 15.1827 37.9309 16.0426 38.6817 17.1459C39.4326 18.2492 39.8333 19.5463 39.8333 20.8733C39.8333 22.6526 39.1134 24.3591 37.8319 25.6173C36.5504 26.8755 34.8123 27.5823 33 27.5823Z" fill="white"/>
</svg>
