<svg width="66" height="42" viewBox="0 0 66 42" fill="none" xmlns="http://www.w3.org/2000/svg">
<rect x="32" y="11" width="33" height="15" rx="6" fill="white"/>
<path d="M39.5602 28.6563L37.9739 30.2813C37.8345 30.4245 37.669 30.5382 37.4866 30.6157C37.3043 30.6933 37.1088 30.7332 36.9114 30.7332C36.714 30.7332 36.5185 30.6933 36.3362 30.6157C36.1538 30.5382 35.9883 30.4245 35.8489 30.2813L28.7777 23.0376L26.3739 29.4605L26.3577 29.5027C26.2044 29.8684 25.9495 30.1797 25.6248 30.3981C25.3001 30.6164 24.9198 30.7321 24.5314 30.7307H24.4339C24.0289 30.7133 23.639 30.5689 23.3168 30.317C22.9946 30.065 22.7558 29.7178 22.6327 29.3222L16.0989 8.82414C15.9843 8.46546 15.969 8.08127 16.0546 7.7142C16.1402 7.34713 16.3234 7.01155 16.584 6.74468C16.8445 6.47782 17.1721 6.29012 17.5304 6.20241C17.8887 6.1147 18.2638 6.13041 18.6139 6.2478L38.6239 12.9409C39.0063 13.072 39.3412 13.3184 39.5845 13.6478C39.8277 13.9773 39.9681 14.3744 39.9872 14.787C40.0062 15.1997 39.9031 15.6086 39.6913 15.9601C39.4794 16.3116 39.1688 16.5893 38.8002 16.7568L38.7589 16.7734L32.4889 19.2409L39.5602 26.4833C39.8414 26.7715 39.9995 27.1623 39.9995 27.5698C39.9995 27.9774 39.8414 28.3682 39.5602 28.6563Z" fill="#FFE30F"/>
</svg>
